<svg width="196" height="144" viewBox="0 0 196 144" fill="none" xmlns="http://www.w3.org/2000/svg">
<path d="M74.0974 42.7148H61.4987C61.2686 41.0849 60.7988 39.6371 60.0893 38.3714C59.3798 37.0866 58.4689 35.9936 57.3567 35.0923C56.2445 34.191 54.9597 33.5007 53.5023 33.0213C52.0641 32.5419 50.5012 32.3022 48.8137 32.3022C45.7647 32.3022 43.1088 33.0597 40.846 34.5746C38.5832 36.0703 36.8286 38.2564 35.5822 41.1328C34.3357 43.9901 33.7125 47.4609 33.7125 51.5455C33.7125 55.745 34.3357 59.2734 35.5822 62.1307C36.8478 64.9879 38.612 67.1452 40.8748 68.6026C43.1376 70.06 45.7551 70.7887 48.7274 70.7887C50.3957 70.7887 51.9394 70.5682 53.3584 70.1271C54.7967 69.6861 56.0719 69.0437 57.1841 68.1999C58.2963 67.337 59.2168 66.2919 59.9454 65.0646C60.6933 63.8374 61.2111 62.4375 61.4987 60.8651L74.0974 60.9226C73.7714 63.6264 72.9565 66.2344 71.6525 68.7464C70.3677 71.2393 68.6322 73.4734 66.4462 75.4485C64.2793 77.4045 61.6905 78.9577 58.6798 80.1083C55.6883 81.2397 52.3038 81.8054 48.5261 81.8054C43.2718 81.8054 38.5736 80.6165 34.4316 78.2386C30.3087 75.8608 27.0488 72.4187 24.6518 67.9123C22.2739 63.4059 21.085 57.9503 21.085 51.5455C21.085 45.1214 22.2931 39.6562 24.7093 35.1499C27.1255 30.6435 30.4046 27.2109 34.5467 24.8523C38.6887 22.4744 43.3485 21.2855 48.5261 21.2855C51.9394 21.2855 55.1035 21.7649 58.0182 22.7237C60.9522 23.6825 63.5506 25.0824 65.8133 26.9233C68.0761 28.745 69.917 30.979 71.3361 33.6254C72.7743 36.2717 73.6947 39.3015 74.0974 42.7148Z" fill="white"/>
<path d="M74.0974 42.7148V49.7148H81.9718L81.0492 41.8947L74.0974 42.7148ZM61.4987 42.7148L54.5674 43.6934L55.4175 49.7148H61.4987V42.7148ZM60.0893 38.3714L53.9616 41.7554L53.9724 41.775L53.9833 41.7945L60.0893 38.3714ZM57.3567 35.0923L52.9496 40.5309L52.9496 40.5309L57.3567 35.0923ZM53.5023 33.0213L51.2887 39.6621L51.3018 39.6665L51.3149 39.6708L53.5023 33.0213ZM40.846 34.5746L44.706 40.4141L44.7232 40.4028L44.7403 40.3913L40.846 34.5746ZM35.5822 41.1328L41.9982 43.9318L42.0016 43.9239L42.0051 43.9161L35.5822 41.1328ZM35.5822 62.1307L29.1661 64.9296L29.174 64.9477L29.1819 64.9657L35.5822 62.1307ZM40.8748 68.6026L37.0844 74.4876H37.0844L40.8748 68.6026ZM53.3584 70.1271L51.3061 63.4348L51.2935 63.4386L51.2808 63.4426L53.3584 70.1271ZM57.1841 68.1999L61.4148 73.7768L61.445 73.7538L61.4751 73.7305L57.1841 68.1999ZM59.9454 65.0646L53.9679 61.422L53.947 61.4563L53.9265 61.4909L59.9454 65.0646ZM61.4987 60.8651L61.5307 53.8651L55.6679 53.8384L54.613 59.6055L61.4987 60.8651ZM74.0974 60.9226L81.0471 61.7605L81.9878 53.9585L74.1294 53.9227L74.0974 60.9226ZM71.6525 68.7465L65.4396 65.5215L65.4349 65.5305L65.4302 65.5396L71.6525 68.7465ZM66.4462 75.4485L71.1365 80.6447L71.139 80.6425L66.4462 75.4485ZM58.6798 80.1083L61.1561 86.6557L61.1674 86.6514L61.1787 86.6471L58.6798 80.1083ZM34.4316 78.2386L30.9343 84.3024L30.9465 84.3094L34.4316 78.2386ZM24.6518 67.9123L18.4608 71.179L18.4662 71.1893L18.4717 71.1996L24.6518 67.9123ZM24.7093 35.1499L30.8785 38.4576L30.8785 38.4576L24.7093 35.1499ZM34.5467 24.8523L38.0105 30.9352L38.0211 30.9291L38.0317 30.923L34.5467 24.8523ZM58.0182 22.7237L55.8309 29.3732L55.8438 29.3774L58.0182 22.7237ZM65.8133 26.9233L61.3957 32.3533L61.4096 32.3646L61.4236 32.3758L65.8133 26.9233ZM71.3361 33.6254L65.167 36.9334L65.1763 36.9507L65.1857 36.9679L71.3361 33.6254ZM74.0974 35.7148H61.4987V49.7148H74.0974V35.7148ZM68.43 41.7363C68.0948 39.362 67.3821 37.0655 66.1952 34.9484L53.9833 41.7945C54.2155 42.2087 54.4424 42.8077 54.5674 43.6934L68.43 41.7363ZM66.217 34.9875C65.0828 32.9338 63.5943 31.1372 61.7637 29.6538L52.9496 40.5309C53.3434 40.85 53.6767 41.2395 53.9616 41.7554L66.217 34.9875ZM61.7638 29.6538C59.9452 28.1802 57.896 27.0976 55.6896 26.3718L51.3149 39.6708C52.0233 39.9038 52.5437 40.2019 52.9496 40.5309L61.7638 29.6538ZM55.7159 26.3805C53.488 25.6379 51.1692 25.3022 48.8137 25.3022V39.3022C49.8332 39.3022 50.6401 39.4459 51.2887 39.6621L55.7159 26.3805ZM48.8137 25.3022C44.5501 25.3022 40.5019 26.381 36.9517 28.7578L44.7403 40.3913C45.7157 39.7383 46.9793 39.3022 48.8137 39.3022V25.3022ZM36.986 28.735C33.4225 31.0905 30.8594 34.4261 29.1593 38.3496L42.0051 43.9161C42.7978 42.0867 43.7439 41.0501 44.706 40.4141L36.986 28.735ZM29.1661 38.3339C27.4349 42.3023 26.7125 46.7827 26.7125 51.5455H40.7125C40.7125 48.1392 41.2365 45.6778 41.9982 43.9318L29.1661 38.3339ZM26.7125 51.5455C26.7125 56.3924 27.4256 60.9399 29.1661 64.9296L41.9982 59.3317C41.2458 57.607 40.7125 55.0976 40.7125 51.5455H26.7125ZM29.1819 64.9657C30.9098 68.8665 33.4967 72.1769 37.0844 74.4876L44.6651 62.7176C43.7273 62.1136 42.7857 61.1093 41.9824 59.2957L29.1819 64.9657ZM37.0844 74.4876C40.5937 76.7478 44.5562 77.7887 48.7274 77.7887V63.7887C46.954 63.7887 45.6814 63.3722 44.6651 62.7176L37.0844 74.4876ZM48.7274 77.7887C51.015 77.7887 53.2675 77.4857 55.4361 76.8117L51.2808 63.4426C50.6113 63.6506 49.7765 63.7887 48.7274 63.7887V77.7887ZM55.4108 76.8195C57.5738 76.1562 59.5985 75.1547 61.4148 73.7768L52.9534 62.6231C52.5453 62.9327 52.0195 63.216 51.3061 63.4348L55.4108 76.8195ZM61.4751 73.7305C63.2907 72.3218 64.7939 70.6098 65.9644 68.6384L53.9265 61.4909C53.6396 61.974 53.3019 62.3522 52.8931 62.6693L61.4751 73.7305ZM65.923 68.7072C67.1643 66.6702 67.9598 64.4459 68.3845 62.1246L54.613 59.6055C54.4623 60.4291 54.2223 61.0045 53.9679 61.422L65.923 68.7072ZM61.4668 67.865L74.0655 67.9225L74.1294 53.9227L61.5307 53.8651L61.4668 67.865ZM67.1478 60.0847C66.9262 61.9225 66.3723 63.7248 65.4396 65.5215L77.8653 71.9714C79.5407 68.744 80.6167 65.3303 81.0471 61.7605L67.1478 60.0847ZM65.4302 65.5396C64.5507 67.2461 63.3461 68.8154 61.7533 70.2545L71.139 80.6425C73.9183 78.1313 76.1846 75.2326 77.8747 71.9533L65.4302 65.5396ZM61.7558 70.2523C60.2938 71.572 58.4685 72.6953 56.1809 73.5695L61.1787 86.6471C64.9125 85.2202 68.2647 83.2369 71.1365 80.6447L61.7558 70.2523ZM56.2036 73.5609C54.1325 74.3442 51.6078 74.8054 48.5261 74.8054V88.8054C52.9997 88.8054 57.2442 88.1352 61.1561 86.6557L56.2036 73.5609ZM48.5261 74.8054C44.369 74.8054 40.8942 73.8772 37.9167 72.1679L30.9465 84.3094C36.2531 87.3558 42.1746 88.8054 48.5261 88.8054V74.8054ZM37.9288 72.1749C35.0257 70.5005 32.6591 68.0602 30.8319 64.625L18.4717 71.1996C21.4385 76.7772 25.5917 81.2211 30.9344 84.3024L37.9288 72.1749ZM30.8428 64.6455C29.1155 61.3722 28.085 57.0983 28.085 51.5455H14.085C14.085 58.8023 15.4323 65.4396 18.4608 71.179L30.8428 64.6455ZM28.085 51.5455C28.085 45.9856 29.13 41.7186 30.8785 38.4576L18.5401 31.8421C15.4562 37.5939 14.085 44.2573 14.085 51.5455H28.085ZM30.8785 38.4576C32.7193 35.0244 35.0973 32.5941 38.0105 30.9352L31.0828 18.7694C25.7119 21.8278 21.5317 26.2626 18.5401 31.8421L30.8785 38.4576ZM38.0317 30.923C41.0249 29.2047 44.4654 28.2855 48.5261 28.2855V14.2855C42.2316 14.2855 36.3525 15.7441 31.0616 18.7815L38.0317 30.923ZM48.5261 28.2855C51.2791 28.2855 53.6966 28.6711 55.8309 29.3732L60.2056 16.0742C56.5104 14.8587 52.5998 14.2855 48.5261 14.2855V28.2855ZM55.8438 29.3774C58.0093 30.0851 59.8373 31.0854 61.3957 32.3533L70.231 21.4933C67.2638 19.0793 63.8951 17.28 60.1927 16.07L55.8438 29.3774ZM61.4236 32.3758C62.9308 33.5893 64.1761 35.0855 65.167 36.9334L77.5051 30.3173C75.6579 26.8726 73.2214 23.9008 70.2031 21.4708L61.4236 32.3758ZM65.1857 36.9679C66.1431 38.7296 66.8327 40.882 67.1456 43.535L81.0492 41.8947C80.5568 37.721 79.4055 33.8138 77.4864 30.2828L65.1857 36.9679Z" fill="#EF5DA8"/>
<rect x="53.0005" width="111" height="103" rx="27" fill="#EF5DA8"/>
<rect x="53.0005" width="111" height="103" rx="27" fill="#EF5DA8"/>
<path d="M93.8911 53.2074V31.9091H104.178V69H94.3016V62.2628H93.9153C93.0781 64.4361 91.6856 66.1828 89.7377 67.5028C87.8059 68.8229 85.4475 69.483 82.6624 69.483C80.1833 69.483 78.0019 68.9195 76.1184 67.7926C74.2349 66.6657 72.7619 65.0639 71.6994 62.9872C70.653 60.9105 70.1217 58.4233 70.1056 55.5256V31.9091H80.3925V53.6903C80.4086 55.8797 80.9962 57.6103 82.1553 58.8821C83.3144 60.1539 84.8679 60.7898 86.8158 60.7898C88.0554 60.7898 89.2145 60.508 90.2931 59.9446C91.3717 59.3651 92.241 58.5118 92.9011 57.3849C93.5772 56.258 93.9072 54.8655 93.8911 53.2074ZM112.406 82.9091V31.9091H122.548V38.1392H123.007C123.458 37.1411 124.11 36.1269 124.963 35.0966C125.833 34.0502 126.959 33.1809 128.344 32.4886C129.744 31.7803 131.483 31.4261 133.56 31.4261C136.264 31.4261 138.76 32.1345 141.046 33.5511C143.332 34.9517 145.159 37.0687 146.527 39.902C147.895 42.7192 148.58 46.2528 148.58 50.5028C148.58 54.6402 147.912 58.1335 146.575 60.983C145.255 63.8163 143.452 65.9654 141.166 67.4304C138.896 68.8793 136.353 69.6037 133.536 69.6037C131.539 69.6037 129.841 69.2737 128.44 68.6136C127.056 67.9536 125.921 67.1245 125.036 66.1264C124.15 65.1122 123.474 64.09 123.007 63.0597H122.693V82.9091H112.406ZM122.476 50.4545C122.476 52.66 122.782 54.5838 123.394 56.2259C124.005 57.8679 124.891 59.1477 126.05 60.0653C127.209 60.9669 128.618 61.4176 130.276 61.4176C131.95 61.4176 133.367 60.9588 134.526 60.0412C135.685 59.1075 136.562 57.8196 137.158 56.1776C137.77 54.5194 138.075 52.6117 138.075 50.4545C138.075 48.3134 137.778 46.4299 137.182 44.804C136.586 43.178 135.709 41.9062 134.55 40.9886C133.391 40.071 131.966 39.6122 130.276 39.6122C128.601 39.6122 127.185 40.0549 126.026 40.9403C124.883 41.8258 124.005 43.0814 123.394 44.7074C122.782 46.3333 122.476 48.2491 122.476 50.4545Z" fill="white"/>
<path d="M1.12354 106L103.547 125.18L194.482 106.748" stroke="black" stroke-width="10"/>
<path d="M1.10059 119.159L103.524 138.338L194.459 119.906" stroke="#EF5DA8" stroke-width="10"/>
<path d="M1.10059 119.159L103.524 138.338L194.459 119.906" stroke="#EF5DA8" stroke-width="10"/>
<path d="M1.12354 113L103.547 132.18L194.482 113.748" stroke="white" stroke-width="10"/>
</svg>
